<?xml version="1.0" encoding="utf-8"?>
<!-- Generator: Fusion 360, Shaper Origin Export Add-In, Version 1.6.9  -->
<svg xmlns="http://www.w3.org/2000/svg" xmlns:xlink="http://www.w3.org/1999/xlink" xmlns:shaper="http://www.shapertools.com/namespaces/shaper" shaper:fusionaddin="version:1.6.9" width="9.6cm" height="4.25cm" version="1.1" x="0cm" y="0cm" viewBox="0 0 9.6 4.25" enable-background="new 0 0 9.6 4.25" xml:space="preserve"><path d="M4.8,-2.125 L4.8,2.125 -4.8,2.125 -4.8,-2.125 4.8,-2.125z" transform="matrix(1,0,0,-1,4.8,2.125)" fill="rgb(0,0,0)" shaper:cutDepth="0" stroke-linecap="round" stroke-linejoin="round" /><path d="M-1.1565,-0.375 L-1.1565,0.125 -0.8565,0.125 -0.8565,-0.375 -1.1565,-0.375z" transform="matrix(1,0,0,-1,4.8,2.125)" fill="rgb(255,255,255)" stroke="rgb(0,0,0)" stroke-width="0.0010cm" stroke-linecap="round" stroke-linejoin="round" shaper:cutDepth="0" /><path d="M0.8565,-0.375 L0.8565,0.125 1.1565,0.125 1.1565,-0.375 0.8565,-0.375z" transform="matrix(1,0,0,-1,4.8,2.125)" fill="rgb(255,255,255)" stroke="rgb(0,0,0)" stroke-width="0.0010cm" stroke-linecap="round" stroke-linejoin="round" shaper:cutDepth="0" /><path d="M-1.1565,-1.675 L-0.6565,-1.675 -0.6565,-1.975 -1.1565,-1.975 -1.1565,-1.675z" transform="matrix(1,0,0,-1,4.8,2.125)" fill="rgb(255,255,255)" stroke="rgb(0,0,0)" stroke-width="0.0010cm" stroke-linecap="round" stroke-linejoin="round" shaper:cutDepth="0" /><path d="M1.1565,-1.675 L1.1565,-1.975 0.6565,-1.975 0.6565,-1.675 1.1565,-1.675z" transform="matrix(1,0,0,-1,4.8,2.125)" fill="rgb(255,255,255)" stroke="rgb(0,0,0)" stroke-width="0.0010cm" stroke-linecap="round" stroke-linejoin="round" shaper:cutDepth="0" /><path d="M-0.3,-1.303 a0.3,0.3 0 1,1 0.6,0 a0.3,0.3 0 1,1 -0.6,0z" transform="matrix(1,0,0,-1,4.8,2.125)" fill="rgb(255,255,255)" stroke="rgb(0,0,0)" stroke-width="0.0010cm" stroke-linecap="round" stroke-linejoin="round" shaper:cutDepth="0" /><path d="M-3.77,1.355 L-3.43,1.355 -3.43,1.895 -3.77,1.895 -3.77,1.355z" transform="matrix(1,0,0,-1,4.8,2.125)" fill="rgb(255,255,255)" stroke="rgb(0,0,0)" stroke-width="0.0010cm" stroke-linecap="round" stroke-linejoin="round" shaper:cutDepth="0" /><path d="M1.03,0.355 L1.37,0.355 1.37,0.895 1.03,0.895 1.03,0.355z" transform="matrix(1,0,0,-1,4.8,2.125)" fill="rgb(255,255,255)" stroke="rgb(0,0,0)" stroke-width="0.0010cm" stroke-linecap="round" stroke-linejoin="round" shaper:cutDepth="0" /><path d="M1.83,0.355 L2.17,0.355 2.17,0.895 1.83,0.895 1.83,0.355z" transform="matrix(1,0,0,-1,4.8,2.125)" fill="rgb(255,255,255)" stroke="rgb(0,0,0)" stroke-width="0.0010cm" stroke-linecap="round" stroke-linejoin="round" shaper:cutDepth="0" /><path d="M4.23,0.355 L4.57,0.355 4.57,0.895 4.23,0.895 4.23,0.355z" transform="matrix(1,0,0,-1,4.8,2.125)" fill="rgb(255,255,255)" stroke="rgb(0,0,0)" stroke-width="0.0010cm" stroke-linecap="round" stroke-linejoin="round" shaper:cutDepth="0" /><path d="M0.23,0.355 L0.57,0.355 0.57,0.895 0.23,0.895 0.23,0.355z" transform="matrix(1,0,0,-1,4.8,2.125)" fill="rgb(255,255,255)" stroke="rgb(0,0,0)" stroke-width="0.0010cm" stroke-linecap="round" stroke-linejoin="round" shaper:cutDepth="0" /><path d="M-4.57,0.355 L-4.23,0.355 -4.23,0.895 -4.57,0.895 -4.57,0.355z" transform="matrix(1,0,0,-1,4.8,2.125)" fill="rgb(255,255,255)" stroke="rgb(0,0,0)" stroke-width="0.0010cm" stroke-linecap="round" stroke-linejoin="round" shaper:cutDepth="0" /><path d="M4.23,1.355 L4.57,1.355 4.57,1.895 4.23,1.895 4.23,1.355z" transform="matrix(1,0,0,-1,4.8,2.125)" fill="rgb(255,255,255)" stroke="rgb(0,0,0)" stroke-width="0.0010cm" stroke-linecap="round" stroke-linejoin="round" shaper:cutDepth="0" /><path d="M-2.17,0.355 L-1.83,0.355 -1.83,0.895 -2.17,0.895 -2.17,0.355z" transform="matrix(1,0,0,-1,4.8,2.125)" fill="rgb(255,255,255)" stroke="rgb(0,0,0)" stroke-width="0.0010cm" stroke-linecap="round" stroke-linejoin="round" shaper:cutDepth="0" /><path d="M2.63,1.355 L2.97,1.355 2.97,1.895 2.63,1.895 2.63,1.355z" transform="matrix(1,0,0,-1,4.8,2.125)" fill="rgb(255,255,255)" stroke="rgb(0,0,0)" stroke-width="0.0010cm" stroke-linecap="round" stroke-linejoin="round" shaper:cutDepth="0" /><path d="M2.63,0.355 L2.97,0.355 2.97,0.895 2.63,0.895 2.63,0.355z" transform="matrix(1,0,0,-1,4.8,2.125)" fill="rgb(255,255,255)" stroke="rgb(0,0,0)" stroke-width="0.0010cm" stroke-linecap="round" stroke-linejoin="round" shaper:cutDepth="0" /><path d="M-4.57,1.355 L-4.23,1.355 -4.23,1.895 -4.57,1.895 -4.57,1.355z" transform="matrix(1,0,0,-1,4.8,2.125)" fill="rgb(255,255,255)" stroke="rgb(0,0,0)" stroke-width="0.0010cm" stroke-linecap="round" stroke-linejoin="round" shaper:cutDepth="0" /><path d="M3.43,0.355 L3.77,0.355 3.77,0.895 3.43,0.895 3.43,0.355z" transform="matrix(1,0,0,-1,4.8,2.125)" fill="rgb(255,255,255)" stroke="rgb(0,0,0)" stroke-width="0.0010cm" stroke-linecap="round" stroke-linejoin="round" shaper:cutDepth="0" /><path d="M-0.57,0.355 L-0.23,0.355 -0.23,0.895 -0.57,0.895 -0.57,0.355z" transform="matrix(1,0,0,-1,4.8,2.125)" fill="rgb(255,255,255)" stroke="rgb(0,0,0)" stroke-width="0.0010cm" stroke-linecap="round" stroke-linejoin="round" shaper:cutDepth="0" /><path d="M3.43,1.355 L3.77,1.355 3.77,1.895 3.43,1.895 3.43,1.355z" transform="matrix(1,0,0,-1,4.8,2.125)" fill="rgb(255,255,255)" stroke="rgb(0,0,0)" stroke-width="0.0010cm" stroke-linecap="round" stroke-linejoin="round" shaper:cutDepth="0" /><path d="M0.23,1.355 L0.57,1.355 0.57,1.895 0.23,1.895 0.23,1.355z" transform="matrix(1,0,0,-1,4.8,2.125)" fill="rgb(255,255,255)" stroke="rgb(0,0,0)" stroke-width="0.0010cm" stroke-linecap="round" stroke-linejoin="round" shaper:cutDepth="0" /><path d="M1.03,1.355 L1.37,1.355 1.37,1.895 1.03,1.895 1.03,1.355z" transform="matrix(1,0,0,-1,4.8,2.125)" fill="rgb(255,255,255)" stroke="rgb(0,0,0)" stroke-width="0.0010cm" stroke-linecap="round" stroke-linejoin="round" shaper:cutDepth="0" /><path d="M-1.37,1.355 L-1.03,1.355 -1.03,1.895 -1.37,1.895 -1.37,1.355z" transform="matrix(1,0,0,-1,4.8,2.125)" fill="rgb(255,255,255)" stroke="rgb(0,0,0)" stroke-width="0.0010cm" stroke-linecap="round" stroke-linejoin="round" shaper:cutDepth="0" /><path d="M-0.57,1.355 L-0.23,1.355 -0.23,1.895 -0.57,1.895 -0.57,1.355z" transform="matrix(1,0,0,-1,4.8,2.125)" fill="rgb(255,255,255)" stroke="rgb(0,0,0)" stroke-width="0.0010cm" stroke-linecap="round" stroke-linejoin="round" shaper:cutDepth="0" /><path d="M-1.37,0.355 L-1.03,0.355 -1.03,0.895 -1.37,0.895 -1.37,0.355z" transform="matrix(1,0,0,-1,4.8,2.125)" fill="rgb(255,255,255)" stroke="rgb(0,0,0)" stroke-width="0.0010cm" stroke-linecap="round" stroke-linejoin="round" shaper:cutDepth="0" /><path d="M1.83,1.355 L2.17,1.355 2.17,1.895 1.83,1.895 1.83,1.355z" transform="matrix(1,0,0,-1,4.8,2.125)" fill="rgb(255,255,255)" stroke="rgb(0,0,0)" stroke-width="0.0010cm" stroke-linecap="round" stroke-linejoin="round" shaper:cutDepth="0" /><path d="M-2.97,1.355 L-2.63,1.355 -2.63,1.895 -2.97,1.895 -2.97,1.355z" transform="matrix(1,0,0,-1,4.8,2.125)" fill="rgb(255,255,255)" stroke="rgb(0,0,0)" stroke-width="0.0010cm" stroke-linecap="round" stroke-linejoin="round" shaper:cutDepth="0" /><path d="M-3.77,0.355 L-3.43,0.355 -3.43,0.895 -3.77,0.895 -3.77,0.355z" transform="matrix(1,0,0,-1,4.8,2.125)" fill="rgb(255,255,255)" stroke="rgb(0,0,0)" stroke-width="0.0010cm" stroke-linecap="round" stroke-linejoin="round" shaper:cutDepth="0" /><path d="M-2.97,0.355 L-2.63,0.355 -2.63,0.895 -2.97,0.895 -2.97,0.355z" transform="matrix(1,0,0,-1,4.8,2.125)" fill="rgb(255,255,255)" stroke="rgb(0,0,0)" stroke-width="0.0010cm" stroke-linecap="round" stroke-linejoin="round" shaper:cutDepth="0" /><path d="M-2.17,1.355 L-1.83,1.355 -1.83,1.895 -2.17,1.895 -2.17,1.355z" transform="matrix(1,0,0,-1,4.8,2.125)" fill="rgb(255,255,255)" stroke="rgb(0,0,0)" stroke-width="0.0010cm" stroke-linecap="round" stroke-linejoin="round" shaper:cutDepth="0" /></svg>