<?xml version="1.0" encoding="UTF-8" standalone="no"?>
<!-- Created with Inkscape (http://www.inkscape.org/) -->

<svg
   width="1000mm"
   height="600mm"
   viewBox="0 0 1000 600"
   version="1.1"
   id="svg5"
   xml:space="preserve"
   inkscape:version="1.2.1 (9c6d41e410, 2022-07-14)"
   sodipodi:docname="out_box.svg"
   xmlns:inkscape="http://www.inkscape.org/namespaces/inkscape"
   xmlns:sodipodi="http://sodipodi.sourceforge.net/DTD/sodipodi-0.dtd"
   xmlns="http://www.w3.org/2000/svg"
   xmlns:svg="http://www.w3.org/2000/svg"><sodipodi:namedview
     id="namedview7"
     pagecolor="#ffffff"
     bordercolor="#000000"
     borderopacity="0.25"
     inkscape:showpageshadow="2"
     inkscape:pageopacity="0.0"
     inkscape:pagecheckerboard="0"
     inkscape:deskcolor="#d1d1d1"
     inkscape:document-units="mm"
     showgrid="false"
     inkscape:zoom="0.5341791"
     inkscape:cx="2019.9218"
     inkscape:cy="1149.4272"
     inkscape:window-width="1920"
     inkscape:window-height="1046"
     inkscape:window-x="-11"
     inkscape:window-y="-11"
     inkscape:window-maximized="1"
     inkscape:current-layer="layer1" /><defs
     id="defs2" /><g
     inkscape:label="Layer 1"
     inkscape:groupmode="layer"
     id="layer1"><g
       id="svgGroup"
       stroke-linecap="round"
       fill-rule="evenodd"
       font-size="12px"
       stroke="#000"
       stroke-width="0.25mm"
       fill="none"
       style="vector-effect:non-scaling-stroke;fill:none;stroke:#0000ff;stroke-width:0.26458333;stroke-dasharray:none;stroke-opacity:1;-inkscape-stroke:hairline"
       transform="translate(41.856318,48.458777)"><path
         d="m 0,364 v 15.375 h 3 v 20.25 H 0 V 415 h 32.125 v -3 h 20.25 v 3 h 20.25 v -3 h 20.25 v 3 h 20.25 v -3 h 20.25 v 3 h 20.25 v -3 h 20.25 v 3 H 194.125 206 v -15.375 h -3 v -20.25 h 3 V 364 h -32.125 v 3 h -20.25 v -3 h -20.25 v 3 h -20.25 v -3 h -20.25 v 3 h -20.25 v -3 h -20.25 v 3 h -20.25 v -3 h -20.25 z"
         id="front_outsideCutPath"
         stroke="#FF0000"
         stroke-width="0.1"
         style="vector-effect:non-scaling-stroke;stroke:#0000ff;stroke-width:0.26458333;stroke-dasharray:none;stroke-opacity:1;-inkscape-stroke:hairline"
         vector-effect="non-scaling-stroke" /><path
         d="m 212,364 v 15.375 h -3 v 20.25 h 3 V 415 h 29.125 v -3 h 20.25 v 3 h 20.25 v -3 h 20.25 v 3 h 20.25 v -3 h 20.25 v 3 h 20.25 v -3 h 20.25 v 3 h 20.25 8.875 v -15.375 h 3 v -20.25 h -3 V 364 h -29.125 v 3 h -20.25 v -3 h -20.25 v 3 h -20.25 v -3 h -20.25 v 3 h -20.25 v -3 h -20.25 v 3 h -20.25 v -3 h -20.25 z"
         id="left_outsideCutPath"
         stroke="#FF0000"
         stroke-width="0.1"
         style="vector-effect:non-scaling-stroke;stroke:#0000ff;stroke-width:0.26458333;stroke-dasharray:none;stroke-opacity:1;-inkscape-stroke:hairline"
         vector-effect="non-scaling-stroke" /><path
         d="m 421,212 v 29.125 h -3 v 20.25 h 3 v 20.25 h -3 v 20.25 h 3 v 20.25 h -3 v 20.25 h 3 v 20.25 h -3 v 20.25 h 3 v 20.25 8.875 h 29.125 v 3 h 20.25 v -3 h 20.25 v 3 h 20.25 v -3 h 20.25 v 3 h 20.25 v -3 h 20.25 v 3 h 20.25 v -3 h 20.25 8.875 v -29.125 h 3 v -20.25 h -3 v -20.25 h 3 v -20.25 h -3 v -20.25 h 3 v -20.25 h -3 v -20.25 h 3 v -20.25 h -3 V 220.875 212 h -29.125 v -3 h -20.25 v 3 h -20.25 v -3 h -20.25 v 3 h -20.25 v -3 h -20.25 v 3 h -20.25 v -3 h -20.25 v 3 h -20.25 z"
         id="top_outsideCutPath"
         stroke="#FF0000"
         stroke-width="0.1"
         style="vector-effect:non-scaling-stroke;stroke:#0000ff;stroke-width:0.26458333;stroke-dasharray:none;stroke-opacity:1;-inkscape-stroke:hairline"
         vector-effect="non-scaling-stroke" /><path
         d="m 0,310 v 15.375 h 3 v 20.25 H 0 V 361 h 32.125 v -3 h 20.25 v 3 h 20.25 v -3 h 20.25 v 3 h 20.25 v -3 h 20.25 v 3 h 20.25 v -3 h 20.25 v 3 H 194.125 206 v -15.375 h -3 v -20.25 h 3 V 310 h -32.125 v 3 h -20.25 v -3 h -20.25 v 3 h -20.25 v -3 h -20.25 v 3 h -20.25 v -3 h -20.25 v 3 h -20.25 v -3 h -20.25 z"
         id="back_outsideCutPath"
         stroke="#FF0000"
         stroke-width="0.1"
         style="vector-effect:non-scaling-stroke;stroke:#0000ff;stroke-width:0.26458333;stroke-dasharray:none;stroke-opacity:1;-inkscape-stroke:hairline"
         vector-effect="non-scaling-stroke" /><path
         d="m 212,310 v 15.375 h -3 v 20.25 h 3 V 361 h 29.125 v -3 h 20.25 v 3 h 20.25 v -3 h 20.25 v 3 h 20.25 v -3 h 20.25 v 3 h 20.25 v -3 h 20.25 v 3 h 20.25 8.875 v -15.375 h 3 v -20.25 h -3 V 310 h -29.125 v 3 h -20.25 v -3 h -20.25 v 3 h -20.25 v -3 h -20.25 v 3 h -20.25 v -3 h -20.25 v 3 h -20.25 v -3 h -20.25 z"
         id="right_outsideCutPath"
         stroke="#FF0000"
         stroke-width="0.1"
         style="vector-effect:non-scaling-stroke;stroke:#0000ff;stroke-width:0.26458333;stroke-dasharray:none;stroke-opacity:1;-inkscape-stroke:hairline"
         vector-effect="non-scaling-stroke" /><path
         d="m 421,3 v 29.125 h -3 v 20.25 h 3 v 20.25 h -3 v 20.25 h 3 v 20.25 h -3 v 20.25 h 3 v 20.25 h -3 v 20.25 h 3 v 20.25 8.875 h 29.125 v 3 h 20.25 v -3 h 20.25 v 3 h 20.25 v -3 h 20.25 v 3 h 20.25 v -3 h 20.25 v 3 h 20.25 v -3 h 20.25 8.875 v -29.125 h 3 v -20.25 h -3 v -20.25 h 3 v -20.25 h -3 v -20.25 h 3 v -20.25 h -3 v -20.25 h 3 v -20.25 h -3 V 11.875 3 H 591.875 V 0 h -20.25 v 3 h -20.25 V 0 h -20.25 v 3 h -20.25 V 0 h -20.25 v 3 h -20.25 V 0 h -20.25 v 3 h -20.25 z"
         id="bottom_outsideCutPath"
         stroke="#FF0000"
         stroke-width="0.1"
         style="vector-effect:non-scaling-stroke;stroke:#0000ff;stroke-width:0.26458333;stroke-dasharray:none;stroke-opacity:1;-inkscape-stroke:hairline"
         vector-effect="non-scaling-stroke" /></g><rect
       style="vector-effect:non-scaling-stroke;fill:none;fill-rule:evenodd;stroke:#0000ff;stroke-width:0.26458333;stroke-dasharray:none;stroke-opacity:1;-inkscape-stroke:hairline"
       id="rect3880"
       width="125"
       height="125"
       x="500.35599"
       y="297.95901" /></g></svg>
