<?xml version="1.0" encoding="UTF-8" standalone="no"?>
<!-- Generator: Fusion 360, Shaper Origin Export Add-In, Version 1.6.9  -->

<svg
   shaper:fusionaddin="version:1.6.9"
   width="600mm"
   height="600mm"
   version="1.1"
   x="0cm"
   y="0cm"
   viewBox="0 0 59.999999 60"
   enable-background="new 0 0 11.3 4"
   xml:space="preserve"
   id="svg4"
   sodipodi:docname="whole_ball.svg"
   inkscape:version="1.2.1 (9c6d41e410, 2022-07-14)"
   xmlns:inkscape="http://www.inkscape.org/namespaces/inkscape"
   xmlns:sodipodi="http://sodipodi.sourceforge.net/DTD/sodipodi-0.dtd"
   xmlns="http://www.w3.org/2000/svg"
   xmlns:svg="http://www.w3.org/2000/svg"
   xmlns:shaper="http://www.shapertools.com/namespaces/shaper"><defs
     id="defs8" /><sodipodi:namedview
     id="namedview6"
     pagecolor="#ffffff"
     bordercolor="#000000"
     borderopacity="0.25"
     inkscape:showpageshadow="2"
     inkscape:pageopacity="0.0"
     inkscape:pagecheckerboard="0"
     inkscape:deskcolor="#d1d1d1"
     inkscape:document-units="cm"
     showgrid="false"
     inkscape:zoom="0.31229734"
     inkscape:cx="1316.0535"
     inkscape:cy="1264.8203"
     inkscape:window-width="1920"
     inkscape:window-height="1046"
     inkscape:window-x="-11"
     inkscape:window-y="-11"
     inkscape:window-maximized="1"
     inkscape:current-layer="svg4" /><path
     d="m 11.958979,4.539165 v -1.5 H 7.4589795 V 0.53916502 h -1 V 3.039165 H 0.65897947 v 0.5 h 0.3 v 0.5 h -0.3 v 0.5 z"
     fill="#000000"
     shaper:cutDepth="0"
     stroke-linecap="round"
     stroke-linejoin="round"
     id="path13188"
     style="vector-effect:non-scaling-stroke;fill:none;fill-rule:evenodd;stroke:#0000ff;stroke-width:0.0264583;stroke-dasharray:none;stroke-opacity:1;-inkscape-stroke:hairline" /><path
     d="m 8.8518928,6.9162505 a 2.5584792,2.5584792 0 0 0 -4.14527,0 H 0.47925779 v 0.5 h 0.3 v 0.5 h -0.3 v 0.5 H 10.779258 v 2.5000005 h 1 V 6.9162505 Z"
     fill="#000000"
     shaper:cutDepth="0"
     stroke-linecap="round"
     stroke-linejoin="round"
     id="path13931"
     style="vector-effect:non-scaling-stroke;fill:none;fill-rule:evenodd;stroke:#0000ff;stroke-width:0.0264583;stroke-dasharray:none;stroke-opacity:1;-inkscape-stroke:hairline" /><path
     d="m 4.081461,14.240147 a 3.1392564,3.1392564 0 0 0 5.515408,0 h 2.242296 v -1.5 h -4.5 v -2.5 h -1 v 2.5 H 0.53916502 v 0.5 h 0.3 v 0.5 h -0.3 v 0.5 z"
     fill="#000000"
     shaper:cutDepth="0"
     stroke-linecap="round"
     stroke-linejoin="round"
     id="path14674"
     style="vector-effect:non-scaling-stroke;fill:none;fill-rule:evenodd;stroke:#0000ff;stroke-width:0.0264583;stroke-dasharray:none;stroke-opacity:1;-inkscape-stroke:hairline" /><path
     d="m 13.270405,10.171248 v 0.5 h 0.3 v 0.5 h -0.3 v 0.5 h 2.660899 a 3.9361219,3.9361219 0 0 0 7.278202,0 h 1.360899 v -1.5 h -4.5 V 7.6712485 h -1 v 2.4999995 z"
     fill="#000000"
     shaper:cutDepth="0"
     stroke-linecap="round"
     stroke-linejoin="round"
     id="path16207"
     style="vector-effect:non-scaling-stroke;fill:none;fill-rule:evenodd;stroke:#0000ff;stroke-width:0.0264583;stroke-dasharray:none;stroke-opacity:1;-inkscape-stroke:hairline" /><path
     d="m 7.2605371,19.212506 v -2.5 h -1 v 2.5 H 0.46053711 v 0.5 h 0.3 v 0.5 h -0.3 v 0.5 H 2.5683571 a 4.4524572,4.4524572 0 0 0 8.3843599,0 h 0.80782 v -1.5 z"
     fill="#000000"
     shaper:cutDepth="0"
     stroke-linecap="round"
     stroke-linejoin="round"
     id="path17705"
     style="vector-effect:non-scaling-stroke;fill:none;fill-rule:evenodd;stroke:#0000ff;stroke-width:0.0264583;stroke-dasharray:none;stroke-opacity:1;-inkscape-stroke:hairline" /><path
     d="m 2.4016586,28.576277 a 4.7800511,4.7800511 0 0 0 9.0772004,0 h 0.4614 v -1.5 H 7.4402586 v -2.5 h -1 v 2.5 H 0.64025859 v 0.5 h 0.3 v 0.5 h -0.3 v 0.5 z"
     fill="#000000"
     shaper:cutDepth="0"
     stroke-linecap="round"
     stroke-linejoin="round"
     id="path19203"
     style="vector-effect:non-scaling-stroke;fill:none;fill-rule:evenodd;stroke:#0000ff;stroke-width:0.0264583;stroke-dasharray:none;stroke-opacity:1;-inkscape-stroke:hairline" /><path
     d="m 0.70016532,36.034058 v 0.5 H 1.0001653 v 0.5 H 0.70016532 v 0.5 H 2.2761213 a 4.9564702,4.9564702 0 0 0 9.4480887,0 h 0.275955 v -1.5 H 7.5001653 v -2.5 h -1 v 2.5 z"
     fill="#000000"
     shaper:cutDepth="0"
     stroke-linecap="round"
     stroke-linejoin="round"
     id="path20701"
     style="vector-effect:non-scaling-stroke;fill:none;fill-rule:evenodd;stroke:#0000ff;stroke-width:0.0264583;stroke-dasharray:none;stroke-opacity:1;-inkscape-stroke:hairline" /><path
     d="m 1.1152585,46.140234 v 0.5 h 0.3 v 0.5 h -0.3 v 0.5 h 1.532663 a 4.9977495,4.9977495 0 0 0 9.5346745,0 h 0.232663 v -1.5 H 7.9152585 v -2.5 h -1 v 2.5 z"
     fill="#000000"
     shaper:cutDepth="0"
     stroke-linecap="round"
     stroke-linejoin="round"
     id="path22199"
     style="vector-effect:non-scaling-stroke;fill:none;fill-rule:evenodd;stroke:#0000ff;stroke-width:0.0264583;stroke-dasharray:none;stroke-opacity:1;-inkscape-stroke:hairline" /><path
     d="m 21.669929,4.9387521 h 3.042433 v -0.5 h -0.3 v -0.5 h 0.3 v -0.5 h -10.3 v -2.5 h -1 v 4 h 1.742433 a 3.5863274,3.5863274 0 0 0 6.515134,0 z"
     fill="#000000"
     shaper:cutDepth="0"
     stroke-linecap="round"
     stroke-linejoin="round"
     id="path33143"
     style="vector-effect:non-scaling-stroke;fill:none;stroke:#0000ff;stroke-width:0.0264583;stroke-dasharray:none;stroke-opacity:1;-inkscape-stroke:hairline" /><path
     d="m 14.718232,17.66723 a 4.2236269,4.2236269 0 0 0 7.896588,0 h 2.351706 v -0.5 h -0.3 v -0.5 h 0.3 v -0.5 h -10.3 v -2.5 h -1 v 4 z"
     fill="#000000"
     shaper:cutDepth="0"
     stroke-linecap="round"
     stroke-linejoin="round"
     id="path34612"
     style="vector-effect:non-scaling-stroke;fill:none;stroke:#0000ff;stroke-width:0.0264583;stroke-dasharray:none;stroke-opacity:1;-inkscape-stroke:hairline" /><path
     d="m 24.627641,23.161406 h -10.3 v -2.5 h -1 v 4 h 0.611313 a 4.6379495,4.6379495 0 0 0 8.777374,0 h 1.911313 v -0.5 h -0.3 v -0.5 h 0.3 z"
     fill="#000000"
     shaper:cutDepth="0"
     stroke-linecap="round"
     stroke-linejoin="round"
     id="path36081"
     style="vector-effect:non-scaling-stroke;fill:none;stroke:#0000ff;stroke-width:0.0264583;stroke-dasharray:none;stroke-opacity:1;-inkscape-stroke:hairline" /><path
     d="m 15.146665,32.904045 h -1.649581 v 0.5 h 0.3 v 0.5 h -0.3 v 0.5 h 10.3 v 2.5 h 1 v -4 h -0.349581 a 4.8863483,4.8863483 0 0 0 -9.300838,0 z"
     fill="#000000"
     shaper:cutDepth="0"
     stroke-linecap="round"
     stroke-linejoin="round"
     id="path37550"
     style="vector-effect:non-scaling-stroke;fill:none;stroke:#0000ff;stroke-width:0.0264583;stroke-dasharray:none;stroke-opacity:1;-inkscape-stroke:hairline" /><path
     d="m 14.750708,41.258436 a 4.9936456,4.9936456 0 0 0 9.526069,0 h 1.536966 v -0.5 h -0.3 v -0.5 h 0.3 v -0.5 h -10.3 v -2.5 h -1 v 4 z"
     fill="#000000"
     shaper:cutDepth="0"
     stroke-linecap="round"
     stroke-linejoin="round"
     id="path39019"
     style="vector-effect:non-scaling-stroke;fill:none;stroke:#0000ff;stroke-width:0.0264583;stroke-dasharray:none;stroke-opacity:1;-inkscape-stroke:hairline" /><path
     d="m 38.640996,4.8795676 v -1.5 h -4.5 V 0.87956728 h -1 V 3.3795676 h -5.8 v 0.5 h 0.3 v 0.5 h -0.3 v 0.5 z"
     fill="#000000"
     shaper:cutDepth="0"
     stroke-linecap="round"
     stroke-linejoin="round"
     id="path13188-1"
     style="vector-effect:non-scaling-stroke;fill:none;fill-rule:evenodd;stroke:#0000ff;stroke-width:0.0264583;stroke-dasharray:none;stroke-opacity:1;-inkscape-stroke:hairline" /><path
     d="m 35.53391,7.2566526 a 2.5584792,2.5584792 0 0 0 -4.14527,0 h -4.227365 v 0.5 h 0.3 v 0.5 h -0.3 v 0.5 h 10.3 v 2.5000014 h 1 V 7.2566526 Z"
     fill="#000000"
     shaper:cutDepth="0"
     stroke-linecap="round"
     stroke-linejoin="round"
     id="path13931-8"
     style="vector-effect:non-scaling-stroke;fill:none;fill-rule:evenodd;stroke:#0000ff;stroke-width:0.0264583;stroke-dasharray:none;stroke-opacity:1;-inkscape-stroke:hairline" /><path
     d="m 30.763478,14.58055 a 3.1392564,3.1392564 0 0 0 5.515408,0 h 2.242296 v -1.5 h -4.5 v -2.5 h -1 v 2.5 h -5.8 v 0.5 h 0.3 v 0.5 h -0.3 v 0.5 z"
     fill="#000000"
     shaper:cutDepth="0"
     stroke-linecap="round"
     stroke-linejoin="round"
     id="path14674-8"
     style="vector-effect:non-scaling-stroke;fill:none;fill-rule:evenodd;stroke:#0000ff;stroke-width:0.0264583;stroke-dasharray:none;stroke-opacity:1;-inkscape-stroke:hairline" /><path
     d="m 39.952422,10.511651 v 0.5 h 0.3 v 0.5 h -0.3 v 0.5 h 2.660899 a 3.9361219,3.9361219 0 0 0 7.278202,0 h 1.360899 v -1.5 h -4.5 V 8.0116506 h -1 v 2.5000004 z"
     fill="#000000"
     shaper:cutDepth="0"
     stroke-linecap="round"
     stroke-linejoin="round"
     id="path16207-9"
     style="vector-effect:non-scaling-stroke;fill:none;fill-rule:evenodd;stroke:#0000ff;stroke-width:0.0264583;stroke-dasharray:none;stroke-opacity:1;-inkscape-stroke:hairline" /><path
     d="m 33.942554,19.552909 v -2.5 h -1 v 2.5 h -5.8 v 0.5 h 0.3 v 0.5 h -0.3 v 0.5 h 2.10782 a 4.4524572,4.4524572 0 0 0 8.38436,0 h 0.80782 v -1.5 z"
     fill="#000000"
     shaper:cutDepth="0"
     stroke-linecap="round"
     stroke-linejoin="round"
     id="path17705-3"
     style="vector-effect:non-scaling-stroke;fill:none;fill-rule:evenodd;stroke:#0000ff;stroke-width:0.0264583;stroke-dasharray:none;stroke-opacity:1;-inkscape-stroke:hairline" /><path
     d="m 29.083676,28.91668 a 4.7800511,4.7800511 0 0 0 9.0772,0 h 0.4614 v -1.5 h -4.5 v -2.5 h -1 v 2.5 h -5.8 v 0.5 h 0.3 v 0.5 h -0.3 v 0.5 z"
     fill="#000000"
     shaper:cutDepth="0"
     stroke-linecap="round"
     stroke-linejoin="round"
     id="path19203-4"
     style="vector-effect:non-scaling-stroke;fill:none;fill-rule:evenodd;stroke:#0000ff;stroke-width:0.0264583;stroke-dasharray:none;stroke-opacity:1;-inkscape-stroke:hairline" /><path
     d="m 27.382182,36.374461 v 0.5 h 0.3 v 0.5 h -0.3 v 0.5 h 1.575956 a 4.9564702,4.9564702 0 0 0 9.448089,0 h 0.275955 v -1.5 h -4.5 v -2.5 h -1 v 2.5 z"
     fill="#000000"
     shaper:cutDepth="0"
     stroke-linecap="round"
     stroke-linejoin="round"
     id="path20701-7"
     style="vector-effect:non-scaling-stroke;fill:none;fill-rule:evenodd;stroke:#0000ff;stroke-width:0.0264583;stroke-dasharray:none;stroke-opacity:1;-inkscape-stroke:hairline" /><path
     d="m 27.797275,46.480637 v 0.5 h 0.3 v 0.5 h -0.3 v 0.5 h 1.532663 a 4.9977495,4.9977495 0 0 0 9.534675,0 h 0.232663 v -1.5 h -4.5 v -2.5 h -1 v 2.5 z"
     fill="#000000"
     shaper:cutDepth="0"
     stroke-linecap="round"
     stroke-linejoin="round"
     id="path22199-6"
     style="vector-effect:non-scaling-stroke;fill:none;fill-rule:evenodd;stroke:#0000ff;stroke-width:0.0264583;stroke-dasharray:none;stroke-opacity:1;-inkscape-stroke:hairline" /><path
     d="m 48.351946,5.2791546 h 3.042433 v -0.5 h -0.3 v -0.5 h 0.3 v -0.5 h -10.3 V 1.2791544 h -1 v 4.0000002 h 1.742433 a 3.5863274,3.5863274 0 0 0 6.515134,0 z"
     fill="#000000"
     shaper:cutDepth="0"
     stroke-linecap="round"
     stroke-linejoin="round"
     id="path33143-5"
     style="vector-effect:non-scaling-stroke;fill:none;stroke:#0000ff;stroke-width:0.0264583;stroke-dasharray:none;stroke-opacity:1;-inkscape-stroke:hairline" /><path
     d="m 41.400249,18.007633 a 4.2236269,4.2236269 0 0 0 7.896588,0 h 2.351706 v -0.5 h -0.3 v -0.5 h 0.3 v -0.5 h -10.3 v -2.5 h -1 v 4 z"
     fill="#000000"
     shaper:cutDepth="0"
     stroke-linecap="round"
     stroke-linejoin="round"
     id="path34612-2"
     style="vector-effect:non-scaling-stroke;fill:none;stroke:#0000ff;stroke-width:0.0264583;stroke-dasharray:none;stroke-opacity:1;-inkscape-stroke:hairline" /><path
     d="m 51.309658,23.501809 h -10.3 v -2.5 h -1 v 4 h 0.611313 a 4.6379495,4.6379495 0 0 0 8.777374,0 h 1.911313 v -0.5 h -0.3 v -0.5 h 0.3 z"
     fill="#000000"
     shaper:cutDepth="0"
     stroke-linecap="round"
     stroke-linejoin="round"
     id="path36081-0"
     style="vector-effect:non-scaling-stroke;fill:none;stroke:#0000ff;stroke-width:0.0264583;stroke-dasharray:none;stroke-opacity:1;-inkscape-stroke:hairline" /><path
     d="m 41.828682,33.244448 h -1.649581 v 0.5 h 0.3 v 0.5 h -0.3 v 0.5 h 10.3 v 2.5 h 1 v -4 H 51.12952 a 4.8863483,4.8863483 0 0 0 -9.300838,0 z"
     fill="#000000"
     shaper:cutDepth="0"
     stroke-linecap="round"
     stroke-linejoin="round"
     id="path37550-9"
     style="vector-effect:non-scaling-stroke;fill:none;stroke:#0000ff;stroke-width:0.0264583;stroke-dasharray:none;stroke-opacity:1;-inkscape-stroke:hairline" /><path
     d="m 41.432725,41.598839 a 4.9936456,4.9936456 0 0 0 9.526069,0 h 1.536966 v -0.5 h -0.3 v -0.5 h 0.3 v -0.5 h -10.3 v -2.5 h -1 v 4 z"
     fill="#000000"
     shaper:cutDepth="0"
     stroke-linecap="round"
     stroke-linejoin="round"
     id="path39019-1"
     style="vector-effect:non-scaling-stroke;fill:none;stroke:#0000ff;stroke-width:0.0264583;stroke-dasharray:none;stroke-opacity:1;-inkscape-stroke:hairline" /></svg>
